<?xml version="1.0" encoding="utf-8"?>
<!-- Generator: Adobe Illustrator 18.0.0, SVG Export Plug-In . SVG Version: 6.00 Build 0)  -->
<!DOCTYPE svg PUBLIC "-//W3C//DTD SVG 1.1//EN" "http://www.w3.org/Graphics/SVG/1.1/DTD/svg11.dtd">
<svg version="1.1" id="レイヤー_1" xmlns="http://www.w3.org/2000/svg" xmlns:xlink="http://www.w3.org/1999/xlink" x="0px"
	 y="0px" viewBox="0 0 640 225" enable-background="new 0 0 640 225" xml:space="preserve">
<path fill="#1E286F" d="M633.6,10.6h-47.2v117.2c0,24.3-20.9,44.3-44.1,44.3c-26.4,0-43.4-21-43.4-43.7V24.8
	c0-7.8-6.3-14.2-14.2-14.2h-46.4v47.2h13.4v70.5c0,55.1,47.8,91,91,91c50.2,0,91-40.7,91-91V10.6z"/>
<path fill="#1E286F" d="M503.1-281.9H517l0,0H503.1z"/>
<path fill="#1E286F" d="M723.6-282.3v-36.4C723.6-306.3,723.6-294.3,723.6-282.3z"/>
<path fill="#1E286F" d="M723.6-329.6v10.9C723.6-322.1,723.6-325.8,723.6-329.6L723.6-329.6z"/>
<polygon fill="#1E286F" points="194.2,10.6 6.4,10.6 6.4,57.8 76.7,57.8 76.7,215.6 123.9,215.6 123.9,57.8 194.2,57.8 "/>
<path fill="#1E286F" d="M422.2,11h-61.5l-81.7,79.1V24.8c0-7.8-6.3-14.2-14.2-14.2h-46.9v47.2h13.9v157.6h47.2V138l79.9,76.9h63.4
	L316.5,113.2L422.2,11z"/>
</svg>
